<svg id="icon" xmlns="http://www.w3.org/2000/svg" viewBox="0 0 32 32">

<style type="text/css">
    .st0{fill:#FFFFFF;}
</style>
    <path
            stroke-width="0px"
            class="st0"
            d="M28.845 22.7267L19.5116 5.44168C19.1673 4.8116 18.6596 4.28583 18.0421 3.91955C17.4245 3.55327 16.7197 3.35999 16.0016 3.35999C15.2836 3.35999 14.5788 3.55327 13.9612 3.91955C13.3436 4.28583 12.836 4.8116 12.4916 5.44168L3.15828 22.72C2.82502 23.3291 2.65603 24.0145 2.66795 24.7087C2.67986 25.4029 2.87227 26.082 3.22624 26.6793C3.58021 27.2766 4.08356 27.7715 4.68678 28.1153C5.29 28.459 5.97231 28.6399 6.66662 28.64H25.3333C26.0269 28.6398 26.7086 28.4593 27.3114 28.1161C27.9142 27.7729 28.4173 27.2788 28.7715 26.6824C29.1257 26.086 29.3187 25.4078 29.3315 24.7143C29.3444 24.0208 29.1767 23.3358 28.845 22.7267ZM15.3333 10.6433C15.3333 10.4665 15.4035 10.297 15.5285 10.1719C15.6536 10.0469 15.8231 9.97668 16 9.97668C16.1768 9.97668 16.3463 10.0469 16.4714 10.1719C16.5964 10.297 16.6666 10.4665 16.6666 10.6433V20.06C16.6666 20.2368 16.5964 20.4064 16.4714 20.5314C16.3463 20.6564 16.1768 20.7267 16 20.7267C15.8231 20.7267 15.6536 20.6564 15.5285 20.5314C15.4035 20.4064 15.3333 20.2368 15.3333 20.06V10.6433ZM16 24.1433C15.8351 24.1433 15.674 24.0945 15.537 24.0029C15.3999 23.9113 15.2931 23.7812 15.2301 23.6289C15.167 23.4766 15.1505 23.3091 15.1826 23.1474C15.2148 22.9858 15.2942 22.8373 15.4107 22.7208C15.5272 22.6042 15.6757 22.5248 15.8374 22.4927C15.999 22.4605 16.1666 22.477 16.3189 22.5401C16.4711 22.6032 16.6013 22.71 16.6928 22.847C16.7844 22.9841 16.8333 23.1452 16.8333 23.31C16.832 23.5302 16.7436 23.7408 16.5874 23.896C16.4313 24.0512 16.2201 24.1384 16 24.1383V24.1433Z"
    />
</svg>
